<svg width="20" height="20" viewBox="0 0 20 20" fill="none" xmlns="http://www.w3.org/2000/svg">
<path d="M18.6572 14.6671C18.636 14.6182 18.6162 14.5776 18.5979 14.545C18.2943 13.9588 17.7141 13.2392 16.8576 12.3861L16.8395 12.3665L16.8304 12.3569L16.8213 12.3471H16.8121C16.4234 11.9499 16.1772 11.6828 16.0742 11.546C15.8855 11.2855 15.8433 11.0218 15.9464 10.7546C16.0192 10.5528 16.2928 10.1265 16.7664 9.47513C17.0156 9.12995 17.2129 8.8533 17.3586 8.64486C18.4095 7.14698 18.8652 6.18981 18.7254 5.77298L18.6711 5.67558C18.6346 5.61693 18.5405 5.56329 18.3888 5.51436C18.2368 5.46554 18.0424 5.45746 17.8055 5.49L15.1814 5.50943C15.1389 5.49328 15.0782 5.49479 14.9991 5.51436C14.9202 5.53393 14.8807 5.54375 14.8807 5.54375L14.835 5.56821L14.7987 5.5976C14.7684 5.61704 14.7349 5.65121 14.6985 5.70007C14.6622 5.74876 14.6318 5.8059 14.6076 5.87101C14.3219 6.65899 13.9971 7.39161 13.6325 8.06884C13.4078 8.47267 13.2013 8.82264 13.0128 9.11897C12.8246 9.41519 12.6666 9.63344 12.5392 9.77334C12.4115 9.91338 12.2963 10.0256 12.1928 10.1103C12.0895 10.1951 12.0107 10.2309 11.9561 10.2178C11.9013 10.2047 11.8498 10.1917 11.801 10.1787C11.716 10.1201 11.6477 10.0403 11.5961 9.93938C11.5444 9.83845 11.5095 9.71141 11.4913 9.55838C11.4732 9.40523 11.4624 9.27351 11.4594 9.16276C11.4565 9.05215 11.4578 8.89569 11.464 8.69382C11.4703 8.49186 11.4732 8.35521 11.4732 8.28357C11.4732 8.03606 11.4777 7.76745 11.4867 7.47766C11.4959 7.18786 11.5033 6.95826 11.5095 6.7891C11.5157 6.61978 11.5186 6.44063 11.5186 6.25177C11.5186 6.06291 11.5079 5.9148 11.4867 5.8073C11.4658 5.69994 11.4336 5.59572 11.3913 5.49469C11.3487 5.39376 11.2863 5.31568 11.2045 5.26025C11.1225 5.20489 11.0206 5.16096 10.8993 5.12832C10.5773 5.05021 10.1673 5.00796 9.6691 5.00139C8.53934 4.98839 7.8134 5.0666 7.49146 5.23593C7.3639 5.30747 7.24847 5.40522 7.14526 5.52887C7.0359 5.67219 7.02064 5.7504 7.0996 5.76327C7.46411 5.82181 7.72216 5.96184 7.87404 6.18324L7.92877 6.30056C7.97134 6.38521 8.01385 6.53506 8.05639 6.74993C8.09887 6.96479 8.12628 7.20247 8.13835 7.46284C8.16866 7.93831 8.16866 8.34532 8.13835 8.6839C8.10793 9.02262 8.07921 9.28631 8.0518 9.47517C8.02438 9.66403 7.98341 9.81707 7.92877 9.93425C7.87404 10.0515 7.83763 10.1231 7.81937 10.1491C7.80115 10.1751 7.78596 10.1915 7.77389 10.1979C7.69494 10.2304 7.61283 10.2469 7.52784 10.2469C7.44273 10.2469 7.33952 10.2013 7.21806 10.11C7.09663 10.0188 6.9706 9.89354 6.83998 9.73396C6.70936 9.57435 6.56205 9.35131 6.39798 9.06481C6.23404 8.7783 6.06394 8.43968 5.88778 8.04896L5.74203 7.7656C5.65092 7.58331 5.52646 7.31788 5.36852 6.96955C5.21048 6.62108 5.0708 6.284 4.94937 5.95839C4.90083 5.82163 4.82791 5.71752 4.73073 5.64588L4.68513 5.61649C4.65481 5.59049 4.60614 5.56287 4.53938 5.53345C4.47252 5.50406 4.40276 5.48299 4.3298 5.47002L1.83325 5.48945C1.57813 5.48945 1.40504 5.55141 1.31389 5.67516L1.27741 5.7337C1.25919 5.76631 1.25 5.81838 1.25 5.89006C1.25 5.96171 1.26822 6.04964 1.3047 6.15375C1.66915 7.07205 2.06548 7.95768 2.4937 8.81077C2.92191 9.66386 3.29402 10.351 3.6098 10.8717C3.92565 11.3928 4.24759 11.8845 4.57563 12.3467C4.90367 12.8091 5.12081 13.1055 5.22705 13.2357C5.33341 13.3661 5.41696 13.4636 5.47769 13.5287L5.70552 13.7631C5.8513 13.9194 6.06538 14.1066 6.34784 14.3248C6.63037 14.543 6.94316 14.7579 7.28635 14.9697C7.62961 15.1812 8.02895 15.3537 8.48457 15.4872C8.94014 15.6208 9.38354 15.6744 9.81485 15.6486H10.8627C11.0752 15.6289 11.2362 15.5572 11.3456 15.4336L11.3819 15.3846C11.4063 15.3458 11.4291 15.2854 11.4502 15.2041C11.4715 15.1227 11.4821 15.033 11.4821 14.9355C11.4758 14.6555 11.4957 14.4032 11.5412 14.1786C11.5866 13.954 11.6384 13.7847 11.6962 13.6706C11.7541 13.5567 11.8194 13.4605 11.8921 13.3826C11.9649 13.3045 12.0168 13.2572 12.0472 13.2409C12.0775 13.2245 12.1016 13.2134 12.1199 13.2067C12.2656 13.1546 12.4372 13.2051 12.6348 13.3582C12.8323 13.5113 13.0175 13.7002 13.1907 13.9248C13.3638 14.1496 13.5718 14.4018 13.8147 14.6818C14.0578 14.9618 14.2704 15.17 14.4525 15.307L14.6347 15.4242C14.7564 15.5024 14.9143 15.5741 15.1087 15.6392C15.3028 15.7043 15.4728 15.7205 15.6188 15.688L17.9513 15.649C18.182 15.649 18.3615 15.608 18.4888 15.5268C18.6164 15.4454 18.6922 15.3557 18.7166 15.2582C18.741 15.1605 18.7423 15.0497 18.7213 14.9259C18.6997 14.8023 18.6784 14.716 18.6572 14.6671Z" fill="white"/>
</svg>
