<svg width="20" height="20" viewBox="0 0 20 20" fill="none" xmlns="http://www.w3.org/2000/svg">
<path fill-rule="evenodd" clip-rule="evenodd" d="M18.4669 5.28496C17.8772 5.5476 17.2467 5.72269 16.5871 5.79856C17.2643 5.39585 17.7838 4.75385 18.029 3.98929C17.3927 4.36282 16.6921 4.63713 15.9449 4.78304C15.3494 4.14687 14.4971 3.75 13.5571 3.75C11.7474 3.75 10.282 5.21493 10.282 7.0242C10.282 7.281 10.3112 7.53197 10.3696 7.77126C7.64326 7.63119 5.23218 6.32967 3.61505 4.35114C3.33483 4.83557 3.17137 5.39585 3.17137 5.997C3.17137 7.13509 3.74933 8.13311 4.63086 8.72258C4.09377 8.70507 3.5917 8.55917 3.14802 8.31404C3.14802 8.32571 3.14802 8.34322 3.14802 8.3549C3.14802 9.94238 4.27475 11.2614 5.77511 11.5649C5.50072 11.6408 5.20882 11.6816 4.91109 11.6816C4.70092 11.6816 4.49659 11.6583 4.29226 11.6233C4.70676 12.9248 5.92106 13.8703 7.35136 13.8994C6.23047 14.7749 4.81768 15.3002 3.28229 15.3002C3.01958 15.3002 2.75687 15.2827 2.5 15.2535C3.94782 16.1815 5.67002 16.7242 7.52066 16.7242C13.5455 16.7242 16.8381 11.7341 16.8381 7.4094C16.8381 7.26933 16.8322 7.12342 16.8264 6.98335C17.4744 6.51644 18.029 5.93864 18.4669 5.28496Z" fill="white"/>
</svg>
