<svg width="20" height="20" viewBox="0 0 20 20" fill="none" xmlns="http://www.w3.org/2000/svg">
<path d="M18.3894 5.58391C18.1878 4.8668 17.5967 4.3015 16.8471 4.1084C15.4776 3.75 9.9998 3.75 9.9998 3.75C9.9998 3.75 4.52218 3.75 3.15274 4.09482C2.41756 4.28771 1.81204 4.8669 1.61038 5.58391C1.25 6.8937 1.25 9.61004 1.25 9.61004C1.25 9.61004 1.25 12.3401 1.61038 13.6362C1.81226 14.3532 2.40314 14.9185 3.15285 15.1116C4.5366 15.4701 10 15.4701 10 15.4701C10 15.4701 15.4776 15.4701 16.8471 15.1253C17.5968 14.9323 18.1878 14.367 18.3897 13.65C18.7499 12.3401 18.7499 9.62383 18.7499 9.62383C18.7499 9.62383 18.7643 6.8937 18.3894 5.58391ZM8.25578 12.1195V7.10059L12.8109 9.61004L8.25578 12.1195Z" fill="white"/>
</svg>
