<svg width="202" height="56" viewBox="0 0 202 56" fill="none" xmlns="http://www.w3.org/2000/svg">
<g filter="url(#filter0_d_1_431)">
<path d="M83.0389 37.5929C80.9909 37.5929 79.006 37.3021 77.0844 36.7206C75.1881 36.139 73.6837 35.3678 72.5712 34.407L74.2779 30.5765C75.3651 31.4361 76.6925 32.1441 78.2601 32.7003C79.8531 33.2313 81.446 33.4968 83.0389 33.4968C85.0111 33.4968 86.4776 33.1807 87.4384 32.5486C88.4245 31.9165 88.9175 31.0821 88.9175 30.0455C88.9175 29.287 88.6394 28.6675 88.0831 28.1871C87.5521 27.6814 86.8695 27.2895 86.0351 27.0114C85.2007 26.7332 84.0629 26.4172 82.6217 26.0632C80.5989 25.5828 78.9555 25.1024 77.6912 24.622C76.4523 24.1416 75.3777 23.3957 74.4675 22.3843C73.5825 21.3477 73.1401 19.957 73.1401 18.2124C73.1401 16.7459 73.532 15.4185 74.3158 14.2301C75.1249 13.0165 76.3259 12.0557 77.9188 11.3477C79.537 10.6397 81.5092 10.2858 83.8353 10.2858C85.4535 10.2858 87.0465 10.488 88.6141 10.8926C90.1817 11.2971 91.5344 11.8787 92.6722 12.6372L91.1172 16.4678C89.9542 15.7851 88.7405 15.2668 87.4763 14.9128C86.2121 14.5588 84.9858 14.3818 83.7974 14.3818C81.8505 14.3818 80.3967 14.7105 79.4359 15.3679C78.5003 16.0253 78.0326 16.8976 78.0326 17.9849C78.0326 18.7434 78.2981 19.3628 78.829 19.8433C79.3853 20.3237 80.0806 20.7029 80.915 20.981C81.7494 21.2592 82.8872 21.5752 84.3284 21.9292C86.3006 22.3843 87.9188 22.8647 89.183 23.3704C90.4472 23.8508 91.5218 24.5967 92.4067 25.6081C93.317 26.6195 93.7721 27.9848 93.7721 29.7042C93.7721 31.1706 93.3675 32.4981 92.5584 33.6864C91.7746 34.8748 90.5736 35.823 88.9554 36.5309C87.3372 37.2389 85.3651 37.5929 83.0389 37.5929Z" fill="white"/>
<path d="M109.432 16.7333C111.404 16.7333 113.162 17.1631 114.704 18.0228C116.272 18.8824 117.498 20.0961 118.383 21.6637C119.268 23.2314 119.71 25.0392 119.71 27.0872C119.71 29.1353 119.268 30.9557 118.383 32.5486C117.498 34.1163 116.272 35.3299 114.704 36.1896C113.162 37.0493 111.404 37.4791 109.432 37.4791C106.701 37.4791 104.54 36.5689 102.947 34.7484V44.5714H98.2059V16.9608H102.719V19.6157C103.503 18.6549 104.464 17.9343 105.602 17.4539C106.765 16.9735 108.042 16.7333 109.432 16.7333ZM108.901 33.4209C110.646 33.4209 112.074 32.8394 113.187 31.6763C114.325 30.5133 114.894 28.9835 114.894 27.0872C114.894 25.1909 114.325 23.6612 113.187 22.4981C112.074 21.335 110.646 20.7535 108.901 20.7535C107.763 20.7535 106.739 21.019 105.829 21.5499C104.919 22.0556 104.198 22.7889 103.667 23.7497C103.136 24.7105 102.871 25.823 102.871 27.0872C102.871 28.3514 103.136 29.4639 103.667 30.4248C104.198 31.3856 104.919 32.1314 105.829 32.6624C106.739 33.1681 107.763 33.4209 108.901 33.4209Z" fill="white"/>
<path d="M131.684 16.7333C134.668 16.7333 136.943 17.4539 138.511 18.8951C140.104 20.311 140.9 22.4602 140.9 25.3426V37.2136H136.425V34.7484C135.843 35.6333 135.009 36.316 133.922 36.7964C132.86 37.2515 131.57 37.4791 130.053 37.4791C128.536 37.4791 127.209 37.2262 126.071 36.7206C124.933 36.1896 124.048 35.469 123.416 34.5587C122.809 33.6232 122.506 32.5739 122.506 31.4108C122.506 29.5904 123.176 28.1365 124.516 27.0493C125.881 25.9368 128.018 25.3805 130.926 25.3805H136.159V25.0771C136.159 23.6612 135.73 22.574 134.87 21.8154C134.036 21.0569 132.784 20.6776 131.115 20.6776C129.977 20.6776 128.852 20.8546 127.74 21.2086C126.653 21.5626 125.73 22.0556 124.971 22.6877L123.113 19.2364C124.175 18.4273 125.452 17.8079 126.943 17.378C128.435 16.9482 130.015 16.7333 131.684 16.7333ZM131.039 34.0278C132.228 34.0278 133.277 33.7623 134.187 33.2313C135.123 32.6751 135.78 31.8912 136.159 30.8799V28.5284H131.267C128.536 28.5284 127.171 29.426 127.171 31.2212C127.171 32.0809 127.512 32.7636 128.195 33.2692C128.878 33.7749 129.826 34.0278 131.039 34.0278Z" fill="white"/>
<path d="M156.462 37.4791C154.363 37.4791 152.479 37.0366 150.811 36.1517C149.142 35.2667 147.84 34.0404 146.904 32.4728C145.969 30.8799 145.501 29.0847 145.501 27.0872C145.501 25.0898 145.969 23.3072 146.904 21.7396C147.84 20.172 149.129 18.9457 150.773 18.0607C152.441 17.1758 154.338 16.7333 156.462 16.7333C158.459 16.7333 160.204 17.1378 161.696 17.9469C163.213 18.756 164.35 19.9191 165.109 21.4362L161.468 23.5601C160.886 22.6245 160.153 21.9292 159.268 21.4741C158.409 20.9937 157.46 20.7535 156.424 20.7535C154.654 20.7535 153.187 21.335 152.024 22.4981C150.861 23.6359 150.28 25.1656 150.28 27.0872C150.28 29.0088 150.849 30.5512 151.986 31.7143C153.149 32.8521 154.629 33.4209 156.424 33.4209C157.46 33.4209 158.409 33.1934 159.268 32.7383C160.153 32.2579 160.886 31.5499 161.468 30.6144L165.109 32.7383C164.325 34.2553 163.175 35.4311 161.658 36.2654C160.166 37.0745 158.434 37.4791 156.462 37.4791Z" fill="white"/>
<path d="M187.95 27.201C187.95 27.5297 187.925 27.9975 187.874 28.6043H171.983C172.261 30.0961 172.982 31.2844 174.145 32.1694C175.333 33.029 176.799 33.4589 178.544 33.4589C180.769 33.4589 182.602 32.7256 184.043 31.2591L186.585 34.1795C185.674 35.2667 184.524 36.0885 183.133 36.6447C181.743 37.201 180.175 37.4791 178.43 37.4791C176.205 37.4791 174.246 37.0366 172.552 36.1517C170.858 35.2667 169.543 34.0404 168.607 32.4728C167.697 30.8799 167.242 29.0847 167.242 27.0872C167.242 25.115 167.684 23.3451 168.569 21.7775C169.48 20.1846 170.731 18.9457 172.324 18.0607C173.917 17.1758 175.712 16.7333 177.71 16.7333C179.682 16.7333 181.439 17.1758 182.982 18.0607C184.549 18.9204 185.763 20.1467 186.622 21.7396C187.507 23.3072 187.95 25.1277 187.95 27.201ZM177.71 20.5259C176.193 20.5259 174.903 20.981 173.841 21.8913C172.805 22.7762 172.172 23.9646 171.945 25.4564H183.437C183.234 23.9899 182.615 22.8015 181.578 21.8913C180.542 20.981 179.252 20.5259 177.71 20.5259Z" fill="white"/>
<path d="M194.021 37.4791C193.161 37.4791 192.428 37.1883 191.821 36.6068C191.214 36 190.911 35.2414 190.911 34.3312C190.911 33.3957 191.202 32.6371 191.783 32.0556C192.39 31.4741 193.136 31.1833 194.021 31.1833C194.906 31.1833 195.639 31.4741 196.221 32.0556C196.827 32.6371 197.131 33.3957 197.131 34.3312C197.131 35.2414 196.827 36 196.221 36.6068C195.614 37.1883 194.88 37.4791 194.021 37.4791Z" fill="white"/>
<circle cx="15.0769" cy="11.077" r="11.0769" fill="white"/>
<circle cx="40.9231" cy="11.0769" r="11.0769" fill="white"/>
<circle cx="15.0769" cy="36.9231" r="11.0769" fill="white"/>
<circle cx="40.9231" cy="36.9231" r="11.0769" fill="white"/>
</g>
<defs>
<filter id="filter0_d_1_431" x="0" y="0" width="201.131" height="56" filterUnits="userSpaceOnUse" color-interpolation-filters="sRGB">
<feFlood flood-opacity="0" result="BackgroundImageFix"/>
<feColorMatrix in="SourceAlpha" type="matrix" values="0 0 0 0 0 0 0 0 0 0 0 0 0 0 0 0 0 0 127 0" result="hardAlpha"/>
<feOffset dy="4"/>
<feGaussianBlur stdDeviation="2"/>
<feComposite in2="hardAlpha" operator="out"/>
<feColorMatrix type="matrix" values="0 0 0 0 0 0 0 0 0 0 0 0 0 0 0 0 0 0 0.25 0"/>
<feBlend mode="normal" in2="BackgroundImageFix" result="effect1_dropShadow_1_431"/>
<feBlend mode="normal" in="SourceGraphic" in2="effect1_dropShadow_1_431" result="shape"/>
</filter>
</defs>
</svg>
