<svg width="22" height="22" viewBox="0 0 22 22" fill="none" xmlns="http://www.w3.org/2000/svg">
<path d="M19.1667 15.0126V17.4615C19.1677 17.6889 19.1211 17.9139 19.0301 18.1222C18.939 18.3305 18.8055 18.5175 18.638 18.6712C18.4705 18.8249 18.2728 18.9419 18.0575 19.0147C17.8421 19.0876 17.614 19.1146 17.3876 19.0942C14.8763 18.8212 12.4641 17.9629 10.3446 16.5881C8.37277 15.3348 6.70099 13.6626 5.44799 11.6903C4.06875 9.56068 3.21042 7.13608 2.94254 4.61288C2.92214 4.38714 2.94896 4.15963 3.02129 3.94483C3.09362 3.73003 3.20987 3.53265 3.36264 3.36525C3.51541 3.19786 3.70136 3.06411 3.90864 2.97253C4.11592 2.88095 4.33999 2.83354 4.56659 2.83333H7.01491C7.41097 2.82943 7.79494 2.96972 8.09524 3.22804C8.39555 3.48637 8.59169 3.8451 8.64713 4.23738C8.75046 5.02109 8.94211 5.79059 9.2184 6.5312C9.3282 6.82337 9.35197 7.14091 9.28688 7.44618C9.22179 7.75145 9.07057 8.03166 8.85115 8.25361L7.8147 9.29031C8.97647 11.334 10.6682 13.0261 12.7113 14.1882L13.7478 13.1514C13.9697 12.932 14.2498 12.7807 14.555 12.7156C14.8602 12.6505 15.1777 12.6743 15.4698 12.7841C16.2102 13.0605 16.9795 13.2522 17.763 13.3555C18.1595 13.4115 18.5215 13.6112 18.7803 13.9167C19.0392 14.2223 19.1767 14.6123 19.1667 15.0126Z" stroke="#888888" stroke-width="1.5" stroke-linecap="round" stroke-linejoin="round"/>
</svg>
